<svg width="50" height="50" viewBox="0 0 50 50" fill="none" xmlns="http://www.w3.org/2000/svg">
<g clip-path="url(#clip0)">
<path d="M46.1037 24.7582L30.8616 13.0435L31.134 6.41553C31.21 4.7248 30.6077 3.12012 29.4383 1.89688C28.2687 0.673633 26.6928 0 25.0004 0C23.308 0 21.7319 0.673633 20.5625 1.89697C19.3931 3.12031 18.7908 4.725 18.8667 6.41172L19.1393 13.0435L3.89707 24.7582C3.65654 24.9431 3.51562 25.2291 3.51562 25.5325V31.6441C3.51562 31.9644 3.67266 32.2644 3.93584 32.4468C4.10156 32.5616 4.296 32.6207 4.49229 32.6207C4.60772 32.6207 4.72373 32.6002 4.83486 32.5586L19.7121 26.9841L20.2808 40.8219L18.8019 43.3836C18.7208 43.524 18.676 43.6823 18.6714 43.8442L18.5257 48.9958C18.5155 49.3567 18.7052 49.6937 19.019 49.8724C19.1689 49.9576 19.3354 50.0001 19.5018 50.0001C19.6836 50.0001 19.8652 49.9493 20.0245 49.8484L25.0004 46.6954L29.9762 49.8483C30.2813 50.0416 30.6681 50.0509 30.9818 49.8722C31.2957 49.6937 31.4853 49.3564 31.4751 48.9954L31.3276 43.8438C31.3229 43.6821 31.2782 43.5241 31.1975 43.3839L29.72 40.8219L30.2887 26.984L45.166 32.5586C45.2771 32.6002 45.3932 32.6207 45.5086 32.6207C45.7049 32.6207 45.8993 32.5616 46.065 32.4468C46.3282 32.2644 46.4852 31.9645 46.4852 31.6441V25.5325C46.4851 25.2292 46.3442 24.9431 46.1037 24.7582ZM21.9743 3.24658C22.7718 2.4125 23.8465 1.95312 25.0004 1.95312C26.1543 1.95312 27.229 2.4125 28.0265 3.24658C28.8239 4.08076 29.2346 5.175 29.1826 6.33164L27.7954 40.0883H22.2054L20.8181 6.32783C20.7662 5.175 21.1769 4.08076 21.9743 3.24658ZM5.46875 30.2353V26.0137L19.2374 15.4313L19.6277 24.93L5.46875 30.2353ZM25.5231 44.7144C25.204 44.5122 24.7968 44.5121 24.4777 44.7144L20.53 47.2158L20.6168 44.1463L21.832 42.0413H28.1686L29.3824 44.1461L29.4702 47.2154L25.5231 44.7144ZM44.532 30.2353L30.3731 24.9299L30.7635 15.4313L44.532 26.0136V30.2353Z" fill="white"/>
<path d="M22.7119 7.25537C23.1018 7.62803 23.72 7.61416 24.0926 7.22432C24.3355 6.97021 24.6497 6.83594 25.001 6.83594C25.3525 6.83594 25.6666 6.97021 25.9095 7.22432C26.1014 7.4251 26.3583 7.52607 26.6155 7.52607C26.8581 7.52607 27.1011 7.43623 27.2902 7.25547C27.68 6.88271 27.694 6.26455 27.3212 5.87471C26.7099 5.23496 25.8858 4.88281 25.001 4.88281C24.1163 4.88281 23.2922 5.23496 22.6808 5.87461C22.3082 6.26436 22.322 6.88262 22.7119 7.25537Z" fill="white"/>
<path d="M25 11.6001C24.4606 11.6001 24.0234 12.0374 24.0234 12.5767V34.7177C24.0234 35.2569 24.4606 35.6942 25 35.6942C25.5393 35.6942 25.9766 35.2569 25.9766 34.7177V12.5767C25.9766 12.0374 25.5394 11.6001 25 11.6001Z" fill="white"/>
</g>
<defs>
<clipPath id="clip0">
<rect width="50" height="50" fill="white"/>
</clipPath>
</defs>
</svg>
