<svg width="1152" height="379" viewBox="0 0 1152 379" fill="none" xmlns="http://www.w3.org/2000/svg">
<path d="M-166.22 360.954C-166.22 360.954 181.861 352.21 371.634 288.149C608.813 208.085 910.316 27.4343 910.316 27.4343" stroke="#BDBDBD" stroke-dasharray="3 3"/>
<path d="M906.887 25.4531C906.65 25.664 906.623 26.0393 906.825 26.2983L908.854 28.7959C908.955 28.9205 909.097 28.9999 909.25 29.0165C909.317 29.0231 909.384 29.0176 909.448 28.9999C909.529 28.9786 909.604 28.9385 909.668 28.8833L917.845 21.6246L919.581 31.3266C919.616 31.5175 919.734 31.6821 919.9 31.7705C920.414 32.0198 920.987 32.0849 921.529 31.9563C921.678 31.9156 921.82 31.8555 921.953 31.7775C922.662 31.3555 923.06 30.4694 923.127 29.1231L923.659 16.4549L930.034 10.8024C931.91 9.13828 932.434 6.66228 931.219 5.1742C930.551 4.40564 929.57 4.02693 928.605 4.1643C927.523 4.28273 926.511 4.74515 925.703 5.49017L918.352 12.0352L908.173 10.7579C906.896 10.6147 905.987 10.8763 905.481 11.5396C905.072 12.1521 904.958 12.9355 905.172 13.6658C905.228 13.8504 905.364 13.9983 905.538 14.0651L912.921 16.8539L909.878 19.5837L903.53 19.6149C903.27 19.6183 903.05 19.8028 902.99 20.0662L902.284 23.2746C902.248 23.4442 902.285 23.6239 902.384 23.7674C902.482 23.9112 902.634 24.0049 902.801 24.0247L907.701 24.7373L906.887 25.4531ZM906.231 13.0597C906.196 12.8021 906.253 12.5432 906.391 12.3331C906.643 12.005 907.231 11.8819 908.088 11.976L917.15 13.104L913.937 15.9561L906.231 13.0597ZM903.551 22.9217L904.021 20.8396L910.12 20.775C910.252 20.7742 910.378 20.7264 910.478 20.6394L926.472 6.44258C927.103 5.85784 927.892 5.4915 928.738 5.39224C929.322 5.2918 929.924 5.50026 930.35 5.94963C931.106 6.8805 930.612 8.67829 929.269 9.86769L923.731 14.798L923.787 13.4737C923.8 13.1335 923.546 12.8391 923.222 12.8164C922.897 12.7937 922.623 13.0513 922.611 13.3915L921.976 29.0462C921.927 29.9384 921.722 30.5195 921.372 30.7286C921.151 30.8405 920.895 30.8582 920.657 30.7795L918.388 18.1255C918.328 17.7929 918.024 17.5664 917.708 17.6198C917.392 17.6728 917.185 17.9859 917.245 18.3186L917.589 20.2533L909.332 27.5714L908.065 26.0218L909.421 24.8164C909.597 24.667 909.669 24.4203 909.606 24.1874C909.542 23.9543 909.354 23.7788 909.126 23.7402L903.551 22.9217Z" fill="#333333"/>
<path d="M1328.54 357.954C1328.54 357.954 980.461 349.21 790.688 285.149C553.51 205.085 252.006 24.4343 252.006 24.4343" stroke="#BDBDBD" stroke-dasharray="3 3"/>
<path d="M255.435 22.4531C255.672 22.664 255.699 23.0393 255.497 23.2983L253.468 25.7959C253.368 25.9205 253.225 25.9999 253.072 26.0165C253.006 26.0231 252.938 26.0176 252.874 25.9999C252.793 25.9786 252.718 25.9385 252.655 25.8833L244.477 18.6246L242.741 28.3266C242.707 28.5175 242.589 28.6821 242.423 28.7705C241.909 29.0198 241.336 29.0849 240.793 28.9563C240.645 28.9156 240.503 28.8555 240.37 28.7775C239.66 28.3555 239.263 27.4694 239.195 26.1231L238.663 13.4549L232.289 7.80242C230.412 6.13828 229.888 3.66228 231.103 2.1742C231.771 1.40564 232.752 1.02693 233.718 1.1643C234.799 1.28273 235.811 1.74515 236.619 2.49017L243.97 9.03523L254.15 7.75794C255.427 7.61473 256.335 7.87626 256.841 8.53959C257.251 9.15209 257.364 9.93548 257.15 10.6658C257.094 10.8504 256.958 10.9983 256.784 11.0651L249.401 13.8539L252.444 16.5837L258.792 16.6149C259.052 16.6183 259.272 16.8028 259.332 17.0662L260.038 20.2746C260.074 20.4442 260.038 20.6239 259.939 20.7674C259.84 20.9112 259.688 21.0049 259.522 21.0247L254.621 21.7373L255.435 22.4531ZM256.091 10.0597C256.126 9.80209 256.069 9.54319 255.931 9.33309C255.68 9.00499 255.091 8.88194 254.235 8.97596L245.172 10.104L248.385 12.9561L256.091 10.0597ZM258.772 19.9217L258.301 17.8396L252.202 17.775C252.07 17.7742 251.944 17.7264 251.844 17.6394L235.85 3.44258C235.22 2.85784 234.43 2.4915 233.584 2.39224C233 2.2918 232.398 2.50026 231.973 2.94963C231.216 3.8805 231.71 5.67829 233.053 6.86769L238.591 11.798L238.535 10.4737C238.522 10.1335 238.776 9.8391 239.101 9.81637C239.426 9.79373 239.699 10.0513 239.712 10.3915L240.346 26.0462C240.395 26.9384 240.601 27.5195 240.95 27.7286C241.171 27.8405 241.427 27.8582 241.665 27.7795L243.934 15.1255C243.994 14.7929 244.298 14.5664 244.614 14.6198C244.93 14.6728 245.137 14.9859 245.078 15.3186L244.733 17.2533L252.99 24.5714L254.257 23.0218L252.901 21.8164C252.725 21.667 252.653 21.4203 252.717 21.1874C252.78 20.9543 252.968 20.7788 253.196 20.7402L258.772 19.9217Z" fill="#333333"/>
</svg>
