<svg width="52" height="39" viewBox="0 0 52 39" fill="none" xmlns="http://www.w3.org/2000/svg">
<path d="M39.8125 19.8125C40.028 19.8125 40.2347 19.7269 40.387 19.5745C40.5394 19.4222 40.625 19.2155 40.625 19V16.5625C40.625 16.347 40.5394 16.1403 40.387 15.988C40.2347 15.8356 40.028 15.75 39.8125 15.75C39.597 15.75 39.3903 15.8356 39.238 15.988C39.0856 16.1403 39 16.347 39 16.5625V19C39 19.2155 39.0856 19.4222 39.238 19.5745C39.3903 19.7269 39.597 19.8125 39.8125 19.8125Z" fill="white"/>
<path d="M39.8125 24.6875C40.028 24.6875 40.2347 24.6019 40.387 24.4495C40.5394 24.2972 40.625 24.0905 40.625 23.875V21.4375C40.625 21.222 40.5394 21.0153 40.387 20.863C40.2347 20.7106 40.028 20.625 39.8125 20.625C39.597 20.625 39.3903 20.7106 39.238 20.863C39.0856 21.0153 39 21.222 39 21.4375V23.875C39 24.0905 39.0856 24.2972 39.238 24.4495C39.3903 24.6019 39.597 24.6875 39.8125 24.6875Z" fill="white"/>
<path d="M39.8125 34.4375C40.028 34.4375 40.2347 34.3519 40.387 34.1995C40.5394 34.0472 40.625 33.8405 40.625 33.625V31.1875C40.625 30.972 40.5394 30.7653 40.387 30.613C40.2347 30.4606 40.028 30.375 39.8125 30.375C39.597 30.375 39.3903 30.4606 39.238 30.613C39.0856 30.7653 39 30.972 39 31.1875V33.625C39 33.8405 39.0856 34.0472 39.238 34.1995C39.3903 34.3519 39.597 34.4375 39.8125 34.4375Z" fill="white"/>
<path d="M39.8125 29.5625C40.028 29.5625 40.2347 29.4769 40.387 29.3245C40.5394 29.1722 40.625 28.9655 40.625 28.75V26.3125C40.625 26.097 40.5394 25.8903 40.387 25.738C40.2347 25.5856 40.028 25.5 39.8125 25.5C39.597 25.5 39.3903 25.5856 39.238 25.738C39.0856 25.8903 39 26.097 39 26.3125V28.75C39 28.9655 39.0856 29.1722 39.238 29.3245C39.3903 29.4769 39.597 29.5625 39.8125 29.5625Z" fill="white"/>
<path d="M24.9647 18.6243C24.9645 18.1051 24.8104 17.5977 24.5218 17.1661C24.2333 16.7345 23.8232 16.3982 23.3435 16.1996C22.8638 16.0011 22.3361 15.9492 21.8269 16.0505C21.3177 16.1519 20.85 16.4019 20.483 16.769L18.3468 18.9052L13.3248 16.2009C13.171 16.1181 12.9945 16.087 12.8216 16.1124C12.6487 16.1378 12.4886 16.2183 12.3651 16.3419L10.6561 18.051C10.5758 18.1312 10.5133 18.2274 10.4725 18.3333C10.4317 18.4393 10.4136 18.5525 10.4192 18.6659C10.4249 18.7793 10.4543 18.8902 10.5054 18.9915C10.5565 19.0928 10.6284 19.1823 10.7162 19.2542L14.7211 22.531L12.3624 24.8897L9.82905 23.8548C9.68092 23.7944 9.51824 23.7789 9.3614 23.8105C9.20455 23.8421 9.06053 23.9194 8.94738 24.0325L7.23798 25.7416C7.15067 25.8289 7.08441 25.9349 7.04423 26.0517C7.00404 26.1685 6.991 26.2928 7.00609 26.4154C7.02118 26.5379 7.064 26.6554 7.1313 26.759C7.1986 26.8625 7.28861 26.9493 7.39449 27.0128L11.4929 29.4719L13.9525 33.5703C14.016 33.6762 14.1028 33.7662 14.2064 33.8335C14.3099 33.9008 14.4274 33.9436 14.5499 33.9587C14.6725 33.9738 14.7969 33.9608 14.9136 33.9206C15.0304 33.8804 15.1364 33.8141 15.2237 33.7268L16.9328 32.0176C17.0459 31.9045 17.1231 31.7605 17.1547 31.6037C17.1863 31.4468 17.1709 31.2842 17.1105 31.1361L16.0751 28.6024L18.4339 26.2437L21.7107 30.2486C21.7826 30.3365 21.8721 30.4083 21.9734 30.4594C22.0747 30.5106 22.1857 30.5399 22.299 30.5456C22.4124 30.5512 22.5257 30.5331 22.6316 30.4923C22.7375 30.4515 22.8337 30.389 22.914 30.3087L24.623 28.5997C24.7466 28.4762 24.8271 28.3161 24.8525 28.1432C24.8779 27.9703 24.8469 27.7938 24.764 27.64L22.0597 22.6178L24.1958 20.4819C24.4403 20.2383 24.6341 19.9488 24.7661 19.63C24.898 19.3112 24.9656 18.9693 24.9647 18.6243ZM23.0467 19.3326L20.483 21.8961C20.3594 22.0197 20.2789 22.1798 20.2536 22.3527C20.2282 22.5256 20.2592 22.702 20.3421 22.8559L23.0463 27.8781L22.3995 28.5249L19.1227 24.5199C19.0509 24.432 18.9614 24.3602 18.86 24.309C18.7587 24.2578 18.6477 24.2285 18.5344 24.2228C18.421 24.2171 18.3077 24.2353 18.2017 24.2761C18.0958 24.3169 17.9996 24.3795 17.9193 24.4598L14.5442 27.835C14.4311 27.9481 14.3539 28.0922 14.3223 28.249C14.2907 28.4058 14.3061 28.5685 14.3666 28.7166L15.4014 31.2503L14.81 31.8417L12.7819 28.4616C12.7133 28.3472 12.6176 28.2515 12.5032 28.1829L9.12288 26.1548L9.71428 25.5634L12.2479 26.5983C12.396 26.6588 12.5587 26.6742 12.7156 26.6426C12.8724 26.611 13.0165 26.5338 13.1296 26.4206L16.5051 23.0453C16.5853 22.965 16.6479 22.8688 16.6887 22.7629C16.7295 22.6569 16.7477 22.5436 16.742 22.4302C16.7363 22.3169 16.707 22.2059 16.6558 22.1046C16.6046 22.0032 16.5328 21.9138 16.4449 21.8419L12.4399 18.5651L13.0867 17.9183L18.1089 20.6225C18.2628 20.7054 18.4392 20.7364 18.6121 20.711C18.785 20.6857 18.9451 20.6052 19.0687 20.4817L21.6322 17.9181C21.7249 17.8245 21.8352 17.7501 21.9568 17.6992C22.0783 17.6483 22.2087 17.6219 22.3405 17.6216C22.4723 17.6213 22.6028 17.647 22.7246 17.6973C22.8464 17.7475 22.9571 17.8214 23.0503 17.9146C23.1434 18.0077 23.2173 18.1184 23.2675 18.2402C23.3178 18.362 23.3435 18.4925 23.3432 18.6243C23.3429 18.7561 23.3165 18.8865 23.2656 19.008C23.2147 19.1296 23.1403 19.2399 23.0467 19.3326Z" fill="white"/>
<path d="M50.375 10.875H45.2877L42.2145 0.8863C42.1516 0.681678 42.0105 0.510143 41.8218 0.408971C41.6332 0.307798 41.4122 0.285165 41.207 0.345988L5.56969 10.875H1.625C1.40951 10.875 1.20285 10.9606 1.05048 11.1129C0.898102 11.2653 0.8125 11.472 0.8125 11.6875V37.6875C0.8125 37.903 0.898102 38.1096 1.05048 38.262C1.20285 38.4144 1.40951 38.5 1.625 38.5H50.375C50.5905 38.5 50.7971 38.4144 50.9495 38.262C51.1019 38.1096 51.1875 37.903 51.1875 37.6875V11.6875C51.1875 11.472 51.1019 11.2653 50.9495 11.1129C50.7971 10.9606 50.5905 10.875 50.375 10.875ZM40.8972 2.13146L43.5876 10.875H11.3049L40.8972 2.13146ZM46.3125 36.875H40.625V36.0625C40.625 35.847 40.5394 35.6403 40.387 35.4879C40.2346 35.3356 40.028 35.25 39.8125 35.25C39.597 35.25 39.3904 35.3356 39.238 35.4879C39.0856 35.6403 39 35.847 39 36.0625V36.875H2.4375V12.5H39V14.125C39 14.3405 39.0856 14.5471 39.238 14.6995C39.3904 14.8519 39.597 14.9375 39.8125 14.9375C40.028 14.9375 40.2346 14.8519 40.387 14.6995C40.5394 14.5471 40.625 14.3405 40.625 14.125V12.5H46.3125V36.875ZM49.5625 36.875H47.9375V12.5H49.5625V36.875Z" fill="white"/>
</svg>
