<svg width="40" height="40" viewBox="0 0 40 40" fill="none" xmlns="http://www.w3.org/2000/svg">
<path d="M20 10C18.0222 10 16.0888 10.5865 14.4443 11.6853C12.7998 12.7841 11.5181 14.3459 10.7612 16.1732C10.0043 18.0004 9.8063 20.0111 10.1922 21.9509C10.578 23.8907 11.5304 25.6725 12.9289 27.0711C14.3275 28.4696 16.1093 29.422 18.0491 29.8079C19.9889 30.1937 21.9996 29.9957 23.8268 29.2388C25.6541 28.4819 27.2159 27.2002 28.3147 25.5557C29.4135 23.9112 30 21.9778 30 20C29.997 17.3488 28.9424 14.807 27.0677 12.9323C25.193 11.0576 22.6512 10.003 20 10ZM20 28.75C18.2694 28.75 16.5777 28.2368 15.1388 27.2754C13.6998 26.3139 12.5783 24.9473 11.9161 23.3485C11.2538 21.7496 11.0805 19.9903 11.4181 18.293C11.7558 16.5956 12.5891 15.0365 13.8128 13.8128C15.0365 12.5891 16.5956 11.7557 18.293 11.4181C19.9903 11.0805 21.7496 11.2538 23.3485 11.9161C24.9473 12.5783 26.3139 13.6998 27.2754 15.1388C28.2368 16.5777 28.75 18.2694 28.75 20C28.7474 22.3198 27.8247 24.5439 26.1843 26.1843C24.5439 27.8247 22.3198 28.7474 20 28.75Z" fill="#333333"/>
<path d="M38.1259 3.125H36.8759C35.3846 3.12667 33.9548 3.71985 32.9003 4.77437C31.8458 5.8289 31.2526 7.25867 31.2509 8.75V10.0781C29.9307 8.58089 28.3248 7.36228 26.5274 6.49375C24.7301 5.62523 22.7774 5.12425 20.7839 5.0202C18.7904 4.91615 16.7962 5.21111 14.9182 5.8878C13.0402 6.56449 11.3162 7.60929 9.84724 8.96094L9.51295 3.71016C9.50106 3.54575 9.4247 3.39269 9.3005 3.28432C9.1763 3.17594 9.01431 3.12101 8.84981 3.1315C8.6853 3.14199 8.5316 3.21704 8.42217 3.34031C8.31274 3.46359 8.25644 3.6251 8.26552 3.78969L8.6624 10.0232C8.37451 10.2258 7.55615 10.5301 6.25091 10.6067V3.75C6.25091 3.58424 6.18507 3.42527 6.06786 3.30806C5.95065 3.19085 5.79167 3.125 5.62591 3.125C5.46015 3.125 5.30118 3.19085 5.18397 3.30806C5.06676 3.42527 5.00091 3.58424 5.00091 3.75V10.6066C3.77021 10.533 2.9113 10.2528 2.58951 10.0213L2.9863 3.78977C2.99539 3.62518 2.93909 3.46367 2.82966 3.34039C2.72023 3.21712 2.56653 3.14207 2.40202 3.13158C2.23752 3.12109 2.07553 3.17602 1.95133 3.28439C1.82713 3.39277 1.75077 3.54583 1.73888 3.71023L1.25599 11.2932C1.21316 12.0222 1.44589 12.7407 1.90803 13.3062C2.37017 13.8717 3.02795 14.2428 3.75091 14.3459V20.625C3.58515 20.625 3.42618 20.6908 3.30897 20.8081C3.19176 20.9253 3.12591 21.0842 3.12591 21.25V33.125C3.12591 33.788 3.38931 34.4239 3.85815 34.8928C4.32699 35.3616 4.96287 35.625 5.62591 35.625C6.28896 35.625 6.92484 35.3616 7.39368 34.8928C7.86252 34.4239 8.12591 33.788 8.12591 33.125V29.1623C9.71828 31.2241 11.8199 32.8359 14.2242 33.839C16.6284 34.8422 19.2523 35.2021 21.8379 34.8836C24.4234 34.565 26.8815 33.5788 28.9703 32.022C31.0591 30.4653 32.7067 28.3916 33.7509 26.0049V33.125C33.7509 33.788 34.0143 34.4239 34.4831 34.8928C34.952 35.3616 35.5879 35.625 36.2509 35.625C36.914 35.625 37.5498 35.3616 38.0187 34.8928C38.4875 34.4239 38.7509 33.788 38.7509 33.125V3.75C38.7509 3.58424 38.6851 3.42527 38.5679 3.30806C38.4506 3.19085 38.2917 3.125 38.1259 3.125ZM6.87591 33.125C6.87591 33.4565 6.74422 33.7745 6.5098 34.0089C6.27538 34.2433 5.95743 34.375 5.62591 34.375C5.29439 34.375 4.97645 34.2433 4.74203 34.0089C4.50761 33.7745 4.37591 33.4565 4.37591 33.125V21.875H6.87591V33.125ZM5.00091 20.625V14.375H6.25091V20.625H5.00091ZM7.0899 13.125H4.16193C3.93621 13.125 3.71286 13.079 3.50551 12.9898C3.29817 12.9006 3.11119 12.7701 2.95599 12.6062C2.80079 12.4423 2.68064 12.2485 2.60286 12.0366C2.52509 11.8247 2.49133 11.5991 2.50365 11.3737C3.20443 11.662 4.23529 11.875 5.62591 11.875C6.76802 11.875 7.91498 11.7152 8.74802 11.3767C8.75999 11.6019 8.72597 11.8271 8.64805 12.0387C8.57012 12.2502 8.44991 12.4437 8.29476 12.6073C8.13961 12.7709 7.95276 12.9011 7.74562 12.9902C7.53847 13.0792 7.31536 13.125 7.0899 13.125ZM29.3197 30.1108C27.8076 31.5043 26.0023 32.5409 24.0366 33.1444C22.0709 33.7479 19.9949 33.9029 17.9614 33.5979C15.9279 33.2929 13.9887 32.5358 12.2866 31.3822C10.5844 30.2286 9.16263 28.708 8.12591 26.9322V21.25C8.12591 21.0842 8.06007 20.9253 7.94286 20.8081C7.82565 20.6908 7.66667 20.625 7.50091 20.625V14.3459C8.22441 14.2427 8.88261 13.8712 9.34478 13.305C9.80695 12.7389 10.0393 12.0197 9.9956 11.2902L9.95255 10.6151C11.3486 9.12001 13.0607 7.95532 14.964 7.2059C16.8673 6.45648 18.9138 6.14122 20.9544 6.28311C22.995 6.425 24.9783 7.02046 26.7595 8.02608C28.5408 9.0317 30.0752 10.4221 31.2509 12.096V21.25C31.2509 21.4158 31.3168 21.5747 31.434 21.6919C31.5512 21.8092 31.7102 21.875 31.8759 21.875H33.6235C33.1918 25.0377 31.6696 27.9505 29.3197 30.1108ZM37.5009 33.125C37.5009 33.4565 37.3692 33.7745 37.1348 34.0089C36.9004 34.2433 36.5824 34.375 36.2509 34.375C35.9194 34.375 35.6015 34.2433 35.367 34.0089C35.1326 33.7745 35.0009 33.4565 35.0009 33.125V21.875H37.5009V33.125ZM37.5009 20.625H32.5009V8.75C32.5022 7.59008 32.9636 6.47804 33.7838 5.65785C34.604 4.83766 35.716 4.3763 36.8759 4.375H37.5009V20.625Z" fill="#333333"/>
</svg>
