<svg width="14" height="14" viewBox="0 0 14 14" fill="none" xmlns="http://www.w3.org/2000/svg">
<path d="M2.914 14V11.657H2.72C2.237 11.65 1.752 11.682 1.275 11.625C0.54 11.537 0.003 10.875 0 10.126V5.417C0 3.871 1.217 2.605 2.743 2.561H2.905V0H11.083V2.535C11.323 2.564 11.537 2.576 11.749 2.62C12.3884 2.75626 12.9612 3.10892 13.3707 3.61848C13.7803 4.12804 14.0015 4.76328 13.997 5.417V10.095C13.997 10.973 13.331 11.653 12.462 11.657C12.011 11.66 11.559 11.657 11.082 11.657V14H2.915H2.914ZM7.002 8.359H11.497C11.553 8.359 11.612 8.356 11.668 8.362C11.927 8.387 12.108 8.592 12.101 8.85C12.0992 8.96913 12.0509 9.08283 11.9665 9.16689C11.8821 9.25095 11.7681 9.29871 11.649 9.3C11.509 9.307 11.369 9.307 11.229 9.3C11.123 9.294 11.083 9.326 11.083 9.44C11.089 9.817 11.089 10.195 11.083 10.573C11.083 10.68 11.114 10.718 11.223 10.718C11.628 10.712 12.033 10.718 12.437 10.715C12.82 10.712 13.069 10.457 13.069 10.069C13.069 8.517 13.072 6.964 13.069 5.408C13.0685 4.90359 12.8686 4.41984 12.5128 4.06223C12.1571 3.70463 11.6744 3.50217 11.17 3.499H2.83C2.39884 3.49912 1.98068 3.64666 1.64491 3.91713C1.30914 4.18761 1.07594 4.56476 0.984 4.986C0.953 5.128 0.934 5.276 0.931 5.42C0.928443 6.96333 0.927443 8.50667 0.928 10.05C0.928 10.425 1.155 10.7 1.498 10.709C1.933 10.721 2.369 10.712 2.805 10.715C2.885 10.715 2.914 10.684 2.914 10.602C2.91089 10.208 2.91089 9.81399 2.914 9.42C2.914 9.323 2.874 9.294 2.784 9.298C2.628 9.301 2.472 9.304 2.316 9.294C2.21105 9.28556 2.11224 9.24115 2.03626 9.16827C1.96028 9.09539 1.91179 8.9985 1.899 8.894C1.88226 8.78673 1.90399 8.677 1.96035 8.58422C2.01672 8.49143 2.10409 8.42157 2.207 8.387C2.29234 8.36388 2.38062 8.35344 2.469 8.356C3.982 8.359 5.492 8.359 7.002 8.359ZM10.146 9.313H3.854V13.055H10.146V9.313ZM3.854 0.945V2.548H10.149V0.945H3.854Z" fill="white"/>
</svg>
