<svg width="50" height="50" viewBox="0 0 50 50" fill="none" xmlns="http://www.w3.org/2000/svg">
<path d="M48.7868 31.5623C48.7538 31.5552 48.7208 31.55 48.688 31.5463C48.1952 31.4918 47.7329 31.8188 47.6273 32.3135C46.4676 37.7506 42.8374 42.5349 37.9179 45.1281L34.1866 41.3959C33.8585 41.0677 33.6777 40.6318 33.6777 40.1684V37.2299C33.6777 36.7666 33.8585 36.3306 34.1866 36.0025L39.6944 30.4947C40.8291 29.3599 41.4541 27.8509 41.4541 26.2456V22.5102C41.4541 20.4462 39.7319 18.7241 37.6678 18.7241C36.9807 18.7241 36.4218 18.1651 36.4218 17.478V16.3003C36.4218 15.6126 36.9807 15.0532 37.6678 15.0532H42.6321C45.0823 17.5639 46.8288 20.7573 47.5915 24.1834C47.7087 24.7099 48.2307 25.0415 48.7569 24.9244C49.2365 24.8176 49.6048 24.2385 49.498 23.7588C47.4636 14.6263 39.3104 7.81187 29.9623 7.40152C30.2973 6.64664 30.4651 5.81861 30.4375 4.97535L30.3808 3.24654C30.3369 1.90748 29.2536 0.824081 27.9144 0.780233L26.1857 0.723592C24.6009 0.670174 23.0707 1.30191 21.9824 2.45299C21.9767 2.45894 21.9713 2.4649 21.9658 2.47096L18.9278 5.84996L6.92028 1.50836C6.56403 1.37965 6.1655 1.46842 5.89763 1.73619L3.52341 4.11031C3.31892 4.3148 3.21559 4.59947 3.24118 4.88746C3.26696 5.17555 3.41892 5.43746 3.65642 5.6026L13.1895 12.2323L7.75192 18.2805C7.34265 18.7358 6.73845 18.9455 6.13454 18.8414L3.74489 18.429C3.43249 18.3753 3.11276 18.4763 2.88835 18.7008L0.286005 21.3033C0.0523132 21.537 -0.0472962 21.873 0.0212585 22.1963C0.0897155 22.5197 0.317157 22.7864 0.625556 22.9051L6.13435 25.0266L8.20397 30.4009C9.2403 40.9596 18.4586 49.2798 29.0508 49.2798C38.8195 49.2798 47.5041 42.2552 49.5382 32.7211C49.6507 32.1936 49.3142 31.6748 48.7868 31.5623ZM23.7228 13.662L27.2441 23.9441L26.1353 25.053L20.4143 16.6358L23.7228 13.662ZM5.73015 4.66578L6.83991 3.55611L17.5186 7.41724L14.5056 10.7685L5.73015 4.66578ZM7.24079 23.3597L2.72907 21.6222L3.91149 20.4398L5.80231 20.7661C7.07126 20.9848 8.34323 20.5441 9.20427 19.5863L23.4093 3.78648C24.113 3.04693 25.1001 2.64254 26.1216 2.67564L27.8504 2.73228C28.1642 2.74254 28.4182 2.99664 28.4285 3.31051L28.4852 5.03941C28.5187 6.05992 28.1139 7.04771 27.3744 7.75142L11.5748 21.9563C10.6283 22.8073 10.1784 24.1042 10.3949 25.3585L10.7213 27.2493L9.53864 28.4317L7.80114 23.9201C7.70202 23.6626 7.49841 23.4589 7.24079 23.3597ZM21.8105 40.9634V45.8963C17.7647 44.228 14.2926 41.1047 12.2597 37.2215L14.6303 34.8519C14.7305 34.7512 14.8646 34.6959 15.0078 34.6959H20.3017C20.967 34.6959 21.5923 34.4369 22.0625 33.9665L23.008 33.0211C23.214 32.8151 23.5604 32.8151 23.7665 33.0211L25.8651 35.1198C26.0747 35.3726 26.0747 35.6254 25.8652 35.8783L22.54 39.2026C22.0695 39.6728 21.8105 40.2982 21.8105 40.9634ZM23.7636 46.5791V40.9634C23.7636 40.82 23.8195 40.6851 23.9209 40.5837L27.2461 37.2595C28.1876 36.318 28.1743 34.6669 27.2462 33.7386L25.1475 31.6401C24.1881 30.6805 22.5864 30.6804 21.6269 31.6401L20.6814 32.5854C20.58 32.6869 20.4451 32.7427 20.3016 32.7427H15.0077C14.3415 32.7427 13.716 33.0022 13.248 33.472L11.3873 35.3321C10.7832 33.8082 10.3753 32.2024 10.1831 30.5496L12.4601 28.2728C12.6846 28.0484 12.7861 27.729 12.7321 27.4162L12.3198 25.0257C12.2171 24.43 12.4308 23.813 12.8803 23.4088L18.9483 17.9534L25.1834 27.1269C25.5219 27.6249 26.2551 27.6952 26.6816 27.2685L29.0558 24.8943C29.3194 24.6307 29.4099 24.2401 29.2892 23.8874L25.3011 12.242L28.5273 9.34146C28.6992 9.33677 28.8742 9.33433 29.0508 9.33433C33.139 9.33433 37.1403 10.6668 40.4035 13.1H37.6679C35.904 13.1 34.4687 14.5356 34.4687 16.3002V17.4779C34.4687 19.242 35.9039 20.6771 37.6679 20.6771C38.6677 20.6771 39.501 21.5104 39.501 22.5101V26.2455C39.501 27.3292 39.0793 28.3477 38.3134 29.1135L32.8056 34.6213C32.1086 35.3184 31.7248 36.2448 31.7248 37.2298V40.1683C31.7248 41.1534 32.1087 42.0798 32.8055 42.7767L36.025 45.9968C33.8182 46.8671 31.4506 47.3264 29.051 47.3264C27.243 47.3267 25.4656 47.0711 23.7636 46.5791Z" fill="white"/>
<path d="M49.9815 28.1399C49.876 27.6195 49.3551 27.2683 48.8331 27.3733C48.3117 27.4781 47.9614 27.9994 48.0665 28.5218C48.1713 29.0426 48.6919 29.3927 49.214 29.2884C49.7335 29.1845 50.0872 28.6611 49.9815 28.1399Z" fill="white"/>
</svg>
