<svg width="16" height="18" viewBox="0 0 16 18" fill="none" xmlns="http://www.w3.org/2000/svg">
<path d="M15.5973 8.91295L10.1102 4.69564L10.2082 2.30959C10.2356 1.70093 10.0188 1.12324 9.59778 0.682875C9.17675 0.242508 8.6094 0 8.00014 0C7.39088 0 6.8235 0.242508 6.4025 0.68291C5.9815 1.12331 5.76469 1.701 5.79201 2.30822L5.89013 4.69564L0.402945 8.91295C0.316356 8.9795 0.265625 9.08248 0.265625 9.19171V11.3919C0.265625 11.5072 0.322156 11.6152 0.416902 11.6808C0.476563 11.7222 0.546559 11.7435 0.617223 11.7435C0.658777 11.7435 0.700543 11.7361 0.740551 11.7211L6.09636 9.71427L6.30107 14.6959L5.76867 15.6181C5.73949 15.6686 5.72335 15.7256 5.7217 15.7839L5.66925 17.6385C5.66559 17.7684 5.73386 17.8897 5.84686 17.9541C5.90082 17.9847 5.96076 18 6.02063 18C6.08609 18 6.15148 17.9818 6.20882 17.9454L8.00014 16.8103L9.79142 17.9454C9.90128 18.015 10.0405 18.0183 10.1535 17.954C10.2665 17.8897 10.3347 17.7683 10.331 17.6383L10.2779 15.7838C10.2763 15.7256 10.2602 15.6687 10.2311 15.6182L9.69921 14.6959L9.90392 9.71423L15.2598 11.7211C15.2998 11.7361 15.3415 11.7435 15.3831 11.7435C15.4538 11.7435 15.5238 11.7222 15.5834 11.6808C15.6782 11.6152 15.7347 11.5072 15.7347 11.3919V9.19171C15.7347 9.08251 15.6839 8.9795 15.5973 8.91295ZM6.91075 1.16877C7.19784 0.8685 7.58473 0.703125 8.00014 0.703125C8.41555 0.703125 8.80244 0.8685 9.08953 1.16877C9.37661 1.46907 9.52444 1.863 9.50574 2.27939L9.00635 14.4318H6.99393L6.4945 2.27802C6.47584 1.863 6.62367 1.46907 6.91075 1.16877ZM0.96875 10.8847V9.36492L5.92546 5.55528L6.06598 8.97479L0.96875 10.8847ZM8.18833 16.0972C8.07344 16.0244 7.92684 16.0244 7.81198 16.0972L6.39079 16.9977L6.42205 15.8927L6.85953 15.1349H9.14071L9.57767 15.8926L9.60928 16.9976L8.18833 16.0972ZM15.0315 10.8847L9.93433 8.97476L10.0749 5.55525L15.0315 9.36489V10.8847Z" fill="#333333"/>
<path d="M7.176 2.61193C7.31638 2.74609 7.53892 2.7411 7.67307 2.60075C7.76051 2.50928 7.87361 2.46094 8.0001 2.46094C8.12663 2.46094 8.23969 2.50928 8.32716 2.60075C8.39624 2.67304 8.4887 2.70939 8.5813 2.70939C8.66863 2.70939 8.75613 2.67704 8.8242 2.61197C8.96454 2.47778 8.96957 2.25524 8.83538 2.11489C8.6153 1.88459 8.31861 1.75781 8.0001 1.75781C7.68158 1.75781 7.38493 1.88459 7.16482 2.11486C7.03066 2.25517 7.03566 2.47774 7.176 2.61193Z" fill="#2F80ED"/>
<path d="M8 4.17603C7.80583 4.17603 7.64844 4.33345 7.64844 4.52759V12.4983C7.64844 12.6925 7.80583 12.8499 8 12.8499C8.19413 12.8499 8.35156 12.6925 8.35156 12.4983V4.52759C8.35156 4.33345 8.19417 4.17603 8 4.17603Z" fill="#2F80ED"/>
</svg>
