<svg width="12" height="18" viewBox="0 0 12 18" fill="none" xmlns="http://www.w3.org/2000/svg">
<path d="M2.34435 18H9.65636C10.5868 18 11.3438 17.243 11.3438 16.3126V5.3446C11.3438 3.91718 10.788 2.57528 9.7788 1.56612C7.69084 -0.521882 4.31015 -0.522198 2.22187 1.56612C1.22325 2.56474 0.667542 3.89233 0.657101 5.30435C0.650105 6.2489 1.4004 7.02391 2.32955 7.03189C3.2716 7.03793 4.0317 6.281 4.0317 5.34457C4.0317 4.24594 4.92992 3.36822 6.00714 3.37595C7.60773 3.38161 8.54659 5.23819 7.57374 6.65567C7.31515 7.03199 6.9532 7.31762 6.52721 7.4814L2.09915 9.18468C1.23651 9.51642 0.656924 10.3603 0.656924 11.2845V16.3126C0.65696 17.243 1.41393 18 2.34435 18ZM6.00036 1.12613C8.33208 1.12613 10.2188 3.01249 10.2188 5.3446V16.3126C10.2188 16.6228 9.96649 16.8751 9.65636 16.8751H2.34435C2.03422 16.8751 1.78189 16.6228 1.78189 16.3126V11.2846C1.78189 10.8224 2.07169 10.4005 2.503 10.2347L6.93102 8.53145C8.29777 8.00597 9.12512 6.6787 9.09344 5.33332C9.06767 3.64354 7.70644 2.25714 6.01111 2.25109C4.29511 2.24311 2.90678 3.63644 2.90678 5.34464C2.90678 5.66099 2.64723 5.91097 2.33922 5.90707C2.03478 5.90447 1.7796 5.63227 1.78195 5.31272C1.79908 3.00082 3.67429 1.12613 6.00036 1.12613Z" fill="#4F4F4F"/>
<path d="M3.50428 13.5H8.53129C8.84191 13.5 9.09375 13.2481 9.09375 12.9375C9.09375 12.6269 8.84191 12.3751 8.53129 12.3751H3.50428C3.19366 12.3751 2.94182 12.6269 2.94182 12.9375C2.94182 13.2481 3.19362 13.5 3.50428 13.5Z" fill="#2F80ED"/>
<path d="M3.50428 15.75H8.53129C8.84191 15.75 9.09375 15.4982 9.09375 15.1876C9.09375 14.877 8.84191 14.6251 8.53129 14.6251H3.50428C3.19366 14.6251 2.94182 14.877 2.94182 15.1876C2.94182 15.4982 3.19362 15.75 3.50428 15.75Z" fill="#2F80ED"/>
</svg>
