<svg width="15" height="14" viewBox="0 0 15 14" fill="none" xmlns="http://www.w3.org/2000/svg">
<path d="M14.7692 13.4616H11.6626V12.7882C11.639 11.2146 11.6626 9.64274 11.5559 8.08233C11.4965 7.10476 10.854 6.66696 9.88986 6.72323C9.03322 6.77949 8.34266 7.47574 8.34266 8.34078C8.33042 10.0252 8.34266 11.699 8.34266 13.4282H5.28322V4.62304H8.34266V5.82478C9.24738 4.65644 10.3654 4.25205 11.7343 4.44282C13.3532 4.66787 14.424 5.71225 14.6504 7.26212C14.674 7.41948 14.722 7.58739 14.7692 7.74563V13.4616ZM0.153851 1.55671C0.416088 0.781338 0.93969 0.343542 1.81993 0.309257C2.5577 0.287279 3.16521 0.500902 3.48602 1.15232C3.76049 1.70264 3.74826 2.28637 3.3077 2.78043C2.81993 3.33075 2.15385 3.44328 1.42745 3.30789C0.736892 3.17339 0.380249 2.70131 0.153851 2.11758V1.55671ZM0.403851 4.61161H3.42658V13.4282H0.403851V4.61073V4.61161Z" fill="white"/>
</svg>
