<svg width="18" height="18" viewBox="0 0 18 18" fill="none" xmlns="http://www.w3.org/2000/svg">
<g clip-path="url(#clip0)">
<path d="M16.6014 7.09134C16.9273 6.77364 17.0424 6.30736 16.9017 5.87448C16.7611 5.4416 16.3939 5.13205 15.9435 5.06662L12.0049 4.49432C11.9276 4.4831 11.8608 4.43455 11.8262 4.36445L10.0648 0.795561C9.86343 0.387397 9.45555 0.13385 9.00038 0.13385C8.54521 0.13385 8.13733 0.387397 7.93592 0.795561L6.17456 4.36448C6.13993 4.43455 6.07313 4.4831 5.99579 4.49435L2.0573 5.06662C1.60688 5.13205 1.23974 5.4416 1.09905 5.87448C0.958354 6.30736 1.07346 6.77364 1.39942 7.09134L4.24937 9.86935C4.3053 9.92392 4.33086 10.0025 4.31764 10.0795L3.64485 14.0021C3.56793 14.4507 3.74885 14.8956 4.11707 15.1631C4.4853 15.4307 4.96441 15.4653 5.36723 15.2535L8.88992 13.4015C8.95911 13.3652 9.04169 13.3652 9.11091 13.4015L12.6336 15.2535C12.8089 15.3456 12.9985 15.3912 13.1871 15.3911C13.4322 15.3911 13.6757 15.3144 13.8837 15.1631C14.2519 14.8955 14.4329 14.4506 14.3559 14.0021L13.6831 10.0795C13.6699 10.0025 13.6955 9.92388 13.7514 9.86932L16.6014 7.09134ZM12.7472 10.2401L13.42 14.1627C13.4425 14.294 13.3615 14.3689 13.3256 14.3949C13.2897 14.4209 13.1934 14.475 13.0756 14.4129L9.55283 12.561C9.37989 12.4701 9.19019 12.4246 9.00045 12.4246C8.81071 12.4246 8.62098 12.4701 8.44808 12.5609L4.92538 14.4129C4.80747 14.4749 4.71125 14.4209 4.67535 14.3948C4.63946 14.3688 4.55839 14.2939 4.58092 14.1627L5.25371 10.2401C5.31977 9.85494 5.19219 9.46218 4.91231 9.1894L2.06237 6.41139C1.96699 6.31836 1.98857 6.21019 2.00232 6.168C2.01599 6.12578 2.06215 6.02555 2.19396 6.00642L6.1324 5.43411C6.51909 5.37793 6.85325 5.13521 7.02622 4.78474L8.78758 1.21582C8.84654 1.09639 8.95608 1.08349 9.00049 1.08349C9.04482 1.08349 9.15437 1.09636 9.21336 1.21582V1.21585L10.9747 4.78478C11.1477 5.13525 11.4818 5.37797 11.8685 5.43415L15.807 6.00646C15.9388 6.02558 15.9849 6.12581 15.9986 6.16803C16.0123 6.21026 16.034 6.31847 15.9385 6.41142L13.0886 9.18943C12.8088 9.46217 12.6812 9.85494 12.7472 10.2401Z" fill="#4F4F4F"/>
<path d="M14.547 0.795477C14.3348 0.641352 14.0379 0.688391 13.8838 0.900524L13.3798 1.59423C13.2257 1.80636 13.2727 2.10332 13.4848 2.25745C13.5692 2.31866 13.6668 2.34815 13.7635 2.34815C13.9104 2.34815 14.0552 2.28027 14.148 2.15244L14.6521 1.45873C14.8062 1.24657 14.7592 0.949602 14.547 0.795477Z" fill="#2F80ED"/>
<path d="M4.61789 1.59143L4.11386 0.897727C3.95977 0.685664 3.66284 0.638625 3.45063 0.79268C3.2385 0.946805 3.19146 1.24377 3.34559 1.4559L3.84962 2.14961C3.94254 2.27754 4.08731 2.34539 4.2342 2.34539C4.33098 2.34539 4.42865 2.3159 4.51288 2.25465C4.72501 2.10056 4.77205 1.8036 4.61789 1.59143Z" fill="#2F80ED"/>
<path d="M1.74206 10.7871C1.66102 10.5377 1.39316 10.4012 1.14373 10.4822L0.328212 10.7472C0.0787781 10.8283 -0.0576634 11.0962 0.0233718 11.3456C0.0885515 11.5463 0.274704 11.6738 0.474848 11.6738C0.523469 11.6738 0.572934 11.6663 0.621696 11.6504L1.43722 11.3854C1.68661 11.3044 1.82309 11.0365 1.74206 10.7871Z" fill="#2F80ED"/>
<path d="M9.00021 16.0588C8.73798 16.0588 8.52539 16.2714 8.52539 16.5337V17.3912C8.52539 17.6534 8.73798 17.866 9.00021 17.866C9.26244 17.866 9.47503 17.6534 9.47503 17.3912V16.5337C9.47503 16.2714 9.26248 16.0588 9.00021 16.0588Z" fill="#2F80ED"/>
<path d="M17.6716 10.7478L16.8561 10.4828C16.6067 10.4018 16.3388 10.5383 16.2577 10.7877C16.1767 11.0371 16.3132 11.305 16.5626 11.386L17.3781 11.651C17.4269 11.6668 17.4763 11.6744 17.5249 11.6744C17.7251 11.6744 17.9113 11.5468 17.9764 11.3461C18.0575 11.0967 17.921 10.8289 17.6716 10.7478Z" fill="#2F80ED"/>
</g>
<defs>
<clipPath id="clip0">
<rect width="18" height="18" fill="white"/>
</clipPath>
</defs>
</svg>
