<svg width="16" height="15" viewBox="0 0 16 15" fill="none" xmlns="http://www.w3.org/2000/svg">
<path d="M0.605003 7.40006C0.897003 6.58206 0.597003 5.78006 0.247003 4.92806C-0.361997 3.45806 0.197003 1.77906 1.464 0.785059C2.682 -0.174941 4.433 -0.258941 5.767 0.559059C5.942 0.668059 6.201 0.727059 6.409 0.693059C10.229 0.0670592 13.881 2.78106 14.315 6.61506C14.39 7.30006 14.29 7.99406 14.29 8.68706C14.29 8.85406 14.315 9.04606 14.398 9.18006C15.358 10.7171 15.174 12.6461 13.923 13.8991C12.68 15.1601 10.737 15.3521 9.211 14.4001C9.05384 14.3039 8.86914 14.2627 8.686 14.2831C4.842 14.9601 1.173 12.2451 0.706003 8.35306C0.664003 8.07706 0.639003 7.78506 0.606003 7.40006H0.605003ZM1.856 7.49206C1.881 11.0341 5.076 13.6991 8.569 13.0391C9.061 12.9471 9.436 12.9721 9.862 13.3061C10.829 14.0581 12.197 13.8991 13.056 13.0301C13.915 12.1701 14.048 10.7921 13.306 9.82306C13.006 9.43006 12.947 9.08806 13.039 8.61206C13.806 4.60206 10.37 1.18606 6.376 1.98806C5.926 2.08006 5.609 2.00506 5.242 1.72806C4.099 0.860059 2.54 1.14406 1.715 2.31406C1.081 3.21606 1.097 4.36006 1.798 5.26206C2.048 5.58806 2.14 5.88006 2.023 6.29006C1.915 6.68206 1.906 7.09106 1.856 7.49206Z" fill="white"/>
<path d="M7.352 3.09902C8.402 3.16602 9.17799 3.35802 9.81999 3.90902C10.237 4.26902 10.304 4.71102 10.004 5.07902C9.70399 5.44602 9.303 5.46302 8.861 5.12902C8.186 4.61902 7.461 4.54402 6.701 4.88602C6.001 5.21202 5.934 5.93002 6.593 6.35602C6.86 6.53202 7.193 6.64902 7.51 6.69902C8.202 6.82402 8.861 6.99102 9.428 7.43402C10.871 8.56202 10.754 10.508 9.178 11.434C8.002 12.128 6.26799 11.986 5.22499 11.101C4.79999 10.741 4.717 10.307 5.017 9.94002C5.325 9.55602 5.717 9.53902 6.184 9.88102C6.826 10.366 7.527 10.441 8.269 10.149C8.594 10.023 8.85299 9.79802 8.88599 9.42202C8.91899 9.04602 8.703 8.77002 8.402 8.61202C8.12285 8.46063 7.82196 8.35336 7.51 8.29402C6.818 8.17702 6.16 8.00202 5.592 7.55102C4.1 6.36502 4.308 4.30002 6.026 3.49002C6.501 3.26502 7.051 3.19002 7.352 3.09802V3.09902Z" fill="white"/>
</svg>
