<svg width="40" height="40" viewBox="0 0 40 40" fill="none" xmlns="http://www.w3.org/2000/svg">
<g clip-path="url(#clip0)">
<path d="M31.886 10.2693C31.1679 9.55117 30.1984 9.12029 29.1212 9.12029H26.5718V2.44165C26.5718 1.79533 26.3564 1.18492 25.9614 0.754039C25.5664 0.287253 24.9919 0 24.3456 0H15.6562C15.0099 0 14.4354 0.287253 14.0404 0.754039C13.6454 1.18492 13.43 1.79533 13.43 2.44165V9.08438H10.8806C9.80342 9.08438 8.79804 9.51526 8.11581 10.2334C7.39768 10.9515 6.9668 11.921 6.9668 12.9982V32.4955C6.9668 33.5727 7.39768 34.5781 8.11581 35.2603C8.65441 35.7989 9.37254 36.1939 10.1984 36.3375V37.1634C10.1984 37.9533 10.5216 38.6715 11.0242 39.1741C11.5269 39.6768 12.2451 40 13.035 40H13.1427C13.9327 40 14.6508 39.6768 15.1535 39.1741C15.6562 38.6715 15.9794 37.9533 15.9794 37.1634V36.4093H24.0224V37.1634C24.0224 37.9533 24.3456 38.6715 24.8483 39.1741C25.351 39.6768 26.0691 40 26.8591 40H26.9668C27.7208 40 28.439 39.7127 28.9417 39.2101L28.9776 39.1741C29.4803 38.6715 29.8034 37.9533 29.8034 37.1634V36.3375C30.5934 36.1939 31.3115 35.7989 31.886 35.2603C32.6041 34.5422 33.035 33.5727 33.035 32.4955V13.0341C33.035 11.9569 32.6041 10.9515 31.886 10.2693ZM14.8304 2.44165C14.8304 2.1544 14.9381 1.86715 15.1176 1.68761C15.2612 1.50808 15.4408 1.43627 15.6562 1.43627H24.3456C24.561 1.43627 24.7406 1.54399 24.8842 1.68761C25.0637 1.86715 25.1715 2.1544 25.1715 2.44165V9.08438H23.5198V4.73968C23.5198 4.27289 23.412 3.84201 23.1966 3.51885C22.9452 3.08797 22.5503 2.83662 22.0835 2.83662H17.9183C17.4515 2.83662 17.0566 3.08797 16.8052 3.51885C16.5898 3.84201 16.4821 4.27289 16.4821 4.73968V9.12029H14.8304V2.44165ZM17.9183 4.73968C17.9183 4.52424 17.9542 4.38061 18.026 4.23698H21.9758C22.0476 4.3447 22.0835 4.52424 22.0835 4.70377V9.08438H17.9183V4.73968ZM14.5431 37.2352C14.5431 37.6302 14.3995 37.9892 14.1122 38.2406C13.8609 38.4919 13.5018 38.6715 13.1068 38.6715H12.9991C12.6041 38.6715 12.2451 38.5278 11.9937 38.2406C11.7424 37.9892 11.5628 37.6302 11.5628 37.2352V36.4811H14.5431V37.2352ZM28.439 37.2352C28.439 37.6302 28.2953 37.9892 28.0081 38.2406L27.9722 38.2765C27.7208 38.5278 27.3618 38.6715 27.0027 38.6715H26.895C26.5 38.6715 26.1409 38.5278 25.8896 38.2406C25.6382 37.9892 25.4587 37.6302 25.4587 37.2352V36.4811H28.439V37.2352ZM31.6706 32.5314C31.6706 33.2136 31.3833 33.86 30.9165 34.2908C30.4497 34.7576 29.8393 35.0449 29.1571 35.0449H24.7406H15.2612H10.8447C10.1625 35.0449 9.51617 34.7576 9.08529 34.2908C8.6185 33.8241 8.33125 33.2136 8.33125 32.5314V13.0341C8.33125 12.3519 8.6185 11.7056 9.08529 11.2747C9.55207 10.8079 10.1625 10.5206 10.8447 10.5206H14.1122H17.1643H22.7657H25.8178H29.0853C29.8393 10.5206 30.4497 10.8079 30.9165 11.2747C31.3833 11.7415 31.6706 12.3519 31.6706 13.0341V32.5314Z" fill="#333333"/>
</g>
<defs>
<clipPath id="clip0">
<rect width="40" height="40" fill="white"/>
</clipPath>
</defs>
</svg>
