<svg width="24" height="24" viewBox="0 0 24 24" fill="none" xmlns="http://www.w3.org/2000/svg">
<path d="M3.75 9.74997H18.4395L17.0947 11.0947C16.8019 11.3876 16.8019 11.8623 17.0947 12.1552C17.2414 12.3018 17.433 12.375 17.625 12.375C17.817 12.375 18.0086 12.3018 18.1553 12.1552L20.7803 9.53022C21.0731 9.23734 21.0731 8.76259 20.7803 8.46972L18.1553 5.84472C17.8624 5.55184 17.3876 5.55184 17.0947 5.84472C16.8019 6.13759 16.8019 6.61234 17.0947 6.90522L18.4395 8.24997H3.75C3.336 8.24997 3 8.58597 3 8.99997C3 9.41397 3.336 9.74997 3.75 9.74997Z" fill="#828282"/>
<path d="M20.2499 14.25H5.56041L6.90516 12.9052C7.19803 12.6123 7.19803 12.1376 6.90516 11.8447C6.61266 11.5518 6.13716 11.5518 5.84466 11.8447L3.21966 14.4697C2.92678 14.7626 2.92678 15.2373 3.21966 15.5302L5.84466 18.1552C5.99091 18.3018 6.18291 18.375 6.37491 18.375C6.56691 18.375 6.75891 18.3018 6.90516 18.1552C7.19803 17.8623 7.19803 17.3876 6.90516 17.0947L5.56041 15.75H20.2499C20.6639 15.75 20.9999 15.414 20.9999 15C20.9999 14.586 20.6639 14.25 20.2499 14.25Z" fill="#828282"/>
</svg>
