<svg width="230" height="215" viewBox="0 0 230 215" fill="none" xmlns="http://www.w3.org/2000/svg">
<path d="M133.622 24.7849C133.065 24.7827 132.524 24.6034 132.075 24.2729L128.347 21.5645C128.038 21.3387 127.665 21.217 127.282 21.217C126.899 21.217 126.526 21.3387 126.217 21.5645L122.488 24.2718C122.038 24.5987 121.497 24.7749 120.941 24.775C120.385 24.7751 119.844 24.5992 119.394 24.2725C118.944 23.9458 118.61 23.4851 118.438 22.9565C118.266 22.4278 118.266 21.8584 118.438 21.3298L119.862 16.9481C119.981 16.5841 119.982 16.1917 119.864 15.8275C119.745 15.4633 119.514 15.146 119.204 14.9215L115.476 12.2132C115.026 11.8866 114.691 11.426 114.52 10.8973C114.348 10.3687 114.348 9.79927 114.519 9.27061C114.691 8.74195 115.026 8.28125 115.476 7.95464C115.926 7.62803 116.467 7.45224 117.023 7.45251H121.631C122.013 7.45311 122.387 7.33227 122.696 7.1073C123.006 6.88233 123.236 6.56484 123.354 6.2006L124.778 1.81892C124.95 1.29027 125.284 0.829567 125.734 0.502811C126.184 0.176054 126.725 0 127.281 0C127.837 0 128.378 0.176054 128.828 0.502811C129.278 0.829567 129.612 1.29027 129.784 1.81892L131.208 6.2006C131.326 6.56484 131.556 6.88233 131.866 7.1073C132.175 7.33227 132.549 7.45311 132.931 7.45251H137.539C138.095 7.45224 138.636 7.62803 139.086 7.95464C139.536 8.28125 139.871 8.74195 140.043 9.27061C140.214 9.79927 140.214 10.3687 140.042 10.8973C139.871 11.426 139.536 11.8866 139.086 12.2132L135.358 14.9215C135.048 15.1461 134.817 15.4634 134.699 15.8275C134.58 16.1917 134.581 16.5841 134.7 16.9481L136.124 21.3298C136.302 21.8578 136.305 22.4291 136.133 22.959C135.961 23.4889 135.622 23.9492 135.168 24.2718C134.72 24.6025 134.179 24.7822 133.622 24.7849Z" fill="#219653" fill-opacity="0.2"/>
<circle cx="121.32" cy="125.945" r="88.9704" fill="#219653"/>
<mask id="mask0" mask-type="alpha" maskUnits="userSpaceOnUse" x="32" y="36" width="179" height="179">
<circle cx="121.32" cy="125.945" r="88.9704" fill="#EB5757"/>
</mask>
<g mask="url(#mask0)">
<g filter="url(#filter0_f)">
<path d="M14.6401 146.416C7.06521 161.71 24.6657 185.279 48.6157 197.146C72.5657 209.014 102.865 209.181 117.792 199.57C132.719 189.959 132.162 170.653 124.587 155.275C116.901 139.897 102.197 128.531 78.581 126.358C54.8538 124.102 22.215 131.122 14.6401 146.416Z" fill="#9B51E0"/>
</g>
<g filter="url(#filter1_f)">
<path d="M123.099 53.2091C115.524 68.5033 133.125 92.0714 157.075 103.939C181.025 115.807 211.324 115.974 226.251 106.363C241.178 96.7516 240.621 77.4458 233.046 62.0681C225.36 46.6903 210.656 35.3241 187.04 33.1512C163.313 30.8947 130.674 37.915 123.099 53.2091Z" fill="#F2C94C"/>
</g>
</g>
<path d="M87.485 128.917C85.0534 126.075 80.7758 125.743 77.934 128.174C75.0922 130.606 74.7594 134.883 77.191 137.725L95.1613 158.691L100.308 154.287L95.1518 158.707C97.5928 161.554 101.881 161.884 104.729 159.443C104.917 159.282 105.095 159.11 105.262 158.934L165.425 102.94C168.163 100.392 168.318 96.1022 165.77 93.3636C163.222 90.6251 158.932 90.4702 156.193 93.0186L100.857 144.518L87.4849 128.917L87.485 128.917Z" fill="white"/>
<path d="M19.2316 122.999C18.6747 122.997 18.1329 122.817 17.6846 122.487L13.9568 119.778C13.6475 119.553 13.2745 119.431 12.8915 119.431C12.5086 119.431 12.1355 119.553 11.8263 119.778L8.09736 122.486C7.64782 122.813 7.10629 122.989 6.55045 122.989C5.99462 122.989 5.45303 122.813 5.00334 122.486C4.55364 122.16 4.21894 121.699 4.04725 121.17C3.87556 120.642 3.87572 120.072 4.04766 119.544L5.4717 115.162C5.5908 114.798 5.59125 114.406 5.47292 114.041C5.3546 113.677 5.12362 113.36 4.81334 113.135L1.08551 110.427C0.635667 110.101 0.300816 109.64 0.128943 109.111C-0.0429307 108.583 -0.0429856 108.013 0.128806 107.485C0.300598 106.956 0.635377 106.495 1.08517 106.169C1.53496 105.842 2.07669 105.666 2.63256 105.666H7.23999C7.62281 105.667 7.99598 105.546 8.30572 105.321C8.61546 105.096 8.84584 104.779 8.96367 104.415L10.3877 100.033C10.5593 99.5042 10.8939 99.0435 11.3435 98.7167C11.7931 98.39 12.3346 98.2139 12.8904 98.2139C13.4462 98.2139 13.9877 98.39 14.4373 98.7167C14.8869 99.0435 15.2215 99.5042 15.3931 100.033L16.8172 104.415C16.935 104.779 17.1653 105.096 17.4751 105.321C17.7848 105.546 18.158 105.667 18.5408 105.666H23.1483C23.7042 105.666 24.2458 105.842 24.6956 106.169C25.1454 106.495 25.4802 106.956 25.652 107.485C25.8238 108.013 25.8237 108.583 25.6519 109.111C25.48 109.64 25.1451 110.101 24.6953 110.427L20.9675 113.135C20.6573 113.36 20.4265 113.677 20.3082 114.041C20.1898 114.406 20.1902 114.798 20.3091 115.162L21.7331 119.544C21.9112 120.072 21.9144 120.643 21.7423 121.173C21.5701 121.703 21.2318 122.163 20.7775 122.486C20.3297 122.816 19.7883 122.996 19.2316 122.999Z" fill="#F2994A" fill-opacity="0.2"/>
<path d="M226.414 98.214C226.114 98.2129 225.823 98.1209 225.582 97.9515L223.577 96.5626C223.41 96.4468 223.21 96.3843 223.004 96.3843C222.798 96.3843 222.597 96.4468 222.431 96.5626L220.425 97.9509C220.183 98.1185 219.892 98.2089 219.593 98.2089C219.294 98.209 219.003 98.1188 218.761 97.9513C218.519 97.7837 218.339 97.5475 218.247 97.2764C218.155 97.0053 218.155 96.7133 218.247 96.4422L219.013 94.1952C219.077 94.0085 219.077 93.8073 219.014 93.6205C218.95 93.4338 218.826 93.2711 218.659 93.156L216.654 91.7671C216.412 91.5996 216.232 91.3634 216.14 91.0923C216.047 90.8212 216.047 90.5292 216.14 90.2581C216.232 89.987 216.412 89.7507 216.654 89.5832C216.896 89.4157 217.187 89.3256 217.486 89.3257H219.964C220.17 89.326 220.371 89.2641 220.537 89.1487C220.704 89.0333 220.828 88.8705 220.891 88.6837L221.657 86.4367C221.749 86.1656 221.929 85.9294 222.171 85.7618C222.413 85.5943 222.704 85.504 223.003 85.504C223.302 85.504 223.593 85.5943 223.835 85.7618C224.077 85.9294 224.257 86.1656 224.349 86.4367L225.115 88.6837C225.178 88.8705 225.302 89.0333 225.469 89.1487C225.635 89.2641 225.836 89.326 226.042 89.3257H228.52C228.819 89.3256 229.11 89.4157 229.352 89.5832C229.594 89.7507 229.774 89.987 229.867 90.2581C229.959 90.5292 229.959 90.8212 229.866 91.0923C229.774 91.3634 229.594 91.5996 229.352 91.7671L227.347 93.156C227.18 93.2711 227.056 93.4338 226.993 93.6206C226.929 93.8073 226.929 94.0085 226.993 94.1952L227.759 96.4422C227.855 96.713 227.856 97.0059 227.764 97.2777C227.671 97.5494 227.489 97.7855 227.245 97.9509C227.004 98.1205 226.713 98.2126 226.414 98.214Z" fill="#EB5757" fill-opacity="0.3"/>
<path d="M191.751 214.915C191.452 214.914 191.16 214.822 190.919 214.653L188.914 213.264C188.748 213.148 188.548 213.086 188.342 213.086C188.136 213.086 187.935 213.148 187.769 213.264L185.763 214.652C185.521 214.82 185.23 214.91 184.931 214.91C184.632 214.91 184.341 214.82 184.099 214.653C183.857 214.485 183.677 214.249 183.585 213.978C183.493 213.707 183.493 213.415 183.585 213.144L184.351 210.897C184.415 210.71 184.415 210.509 184.352 210.322C184.288 210.135 184.164 209.973 183.997 209.857L181.992 208.469C181.75 208.301 181.57 208.065 181.478 207.794C181.385 207.523 181.385 207.231 181.477 206.96C181.57 206.688 181.75 206.452 181.992 206.285C182.234 206.117 182.525 206.027 182.824 206.027H185.302C185.508 206.028 185.709 205.966 185.875 205.85C186.042 205.735 186.166 205.572 186.229 205.385L186.995 203.138C187.087 202.867 187.267 202.631 187.509 202.463C187.751 202.296 188.042 202.205 188.341 202.205C188.64 202.205 188.931 202.296 189.173 202.463C189.415 202.631 189.595 202.867 189.687 203.138L190.453 205.385C190.516 205.572 190.64 205.735 190.807 205.85C190.973 205.966 191.174 206.028 191.38 206.027H193.858C194.157 206.027 194.448 206.117 194.69 206.285C194.932 206.452 195.112 206.688 195.204 206.96C195.297 207.231 195.297 207.523 195.204 207.794C195.112 208.065 194.932 208.301 194.69 208.469L192.685 209.857C192.518 209.973 192.394 210.135 192.33 210.322C192.267 210.509 192.267 210.71 192.331 210.897L193.097 213.144C193.193 213.414 193.194 213.707 193.102 213.979C193.009 214.251 192.827 214.487 192.583 214.652C192.342 214.822 192.051 214.914 191.751 214.915Z" fill="#EB5757" fill-opacity="0.3"/>
<defs>
<filter id="filter0_f" x="-250.67" y="-137.587" width="643.996" height="607.56" filterUnits="userSpaceOnUse" color-interpolation-filters="sRGB">
<feFlood flood-opacity="0" result="BackgroundImageFix"/>
<feBlend mode="normal" in="SourceGraphic" in2="BackgroundImageFix" result="shape"/>
<feGaussianBlur stdDeviation="131.766" result="effect1_foregroundBlur"/>
</filter>
<filter id="filter1_f" x="-142.211" y="-230.794" width="643.996" height="607.56" filterUnits="userSpaceOnUse" color-interpolation-filters="sRGB">
<feFlood flood-opacity="0" result="BackgroundImageFix"/>
<feBlend mode="normal" in="SourceGraphic" in2="BackgroundImageFix" result="shape"/>
<feGaussianBlur stdDeviation="131.766" result="effect1_foregroundBlur"/>
</filter>
</defs>
</svg>
