<svg width="15" height="13" viewBox="0 0 15 13" fill="none" xmlns="http://www.w3.org/2000/svg">
<path d="M4.57854 9.91491C3.18591 9.73484 2.28497 9.14087 1.78179 7.96463C2.15633 7.93229 2.53076 7.89838 2.90508 7.86291C1.54794 7.31337 0.78794 6.40604 0.647006 4.9714C1.08025 5.08364 1.48948 5.1842 1.99371 5.30814C0.610467 3.8618 0.353654 2.72998 1.10217 1.39589C2.77563 3.1778 4.81135 4.24297 7.39723 4.41134C7.38679 4.1541 7.35129 3.94014 7.36277 3.72734C7.39827 2.61657 7.88893 1.74315 8.90783 1.19361C9.96014 0.623028 11.0834 0.599643 12.0439 1.29534C12.664 1.74315 13.1546 1.6765 13.7403 1.4298C13.9856 1.32924 14.231 1.217 14.5943 1.2053C14.232 1.66481 13.8802 2.1138 13.471 2.62943C13.9512 2.51718 14.3959 2.40494 14.9221 2.281C14.7467 2.4938 14.6412 2.71829 14.4659 2.83054C13.6234 3.36838 13.495 4.16346 13.377 5.06143C12.9093 8.80531 10.2994 11.5284 6.48481 12.2908C4.40212 12.7059 2.42382 12.3469 0.552006 11.4162C0.495632 11.3823 0.448654 11.3273 0.30772 11.2151C1.88723 11.1917 3.27986 10.89 4.57854 9.91491Z" fill="white"/>
</svg>
