<svg width="21" height="20" viewBox="0 0 21 20" fill="none" xmlns="http://www.w3.org/2000/svg">
<g clip-path="url(#clip0)">
<path d="M19.9351 15.6757H1.7845C1.71371 15.6757 1.64581 15.6472 1.59576 15.5965C1.5457 15.5458 1.51758 15.4771 1.51758 15.4054V12.6486C1.51757 12.5863 1.53881 12.5259 1.57773 12.4777C1.61664 12.4294 1.67082 12.3962 1.73112 12.3838C2.27417 12.2721 2.76241 11.9738 3.11309 11.5394C3.46378 11.1049 3.65536 10.5611 3.65536 9.99999C3.65536 9.43889 3.46378 8.89506 3.11309 8.46062C2.76241 8.02618 2.27417 7.72786 1.73112 7.6162C1.67082 7.60374 1.61664 7.57057 1.57773 7.52231C1.53881 7.47404 1.51757 7.41364 1.51758 7.35134V4.59458C1.51758 4.5229 1.5457 4.45416 1.59576 4.40347C1.64581 4.35278 1.71371 4.32431 1.7845 4.32431H19.9351C20.0059 4.32431 20.0738 4.35278 20.1239 4.40347C20.1739 4.45416 20.2021 4.5229 20.2021 4.59458V7.35134C20.2021 7.41364 20.1808 7.47404 20.1419 7.52231C20.103 7.57057 20.0488 7.60374 19.9885 7.6162C19.4455 7.72786 18.9572 8.02618 18.6065 8.46062C18.2559 8.89506 18.0643 9.43889 18.0643 9.99999C18.0643 10.5611 18.2559 11.1049 18.6065 11.5394C18.9572 11.9738 19.4455 12.2721 19.9885 12.3838C20.0488 12.3962 20.103 12.4294 20.1419 12.4777C20.1808 12.5259 20.2021 12.5863 20.2021 12.6486V15.4054C20.2021 15.4771 20.1739 15.5458 20.1239 15.5965C20.0738 15.6472 20.0059 15.6757 19.9351 15.6757ZM2.05142 15.1351H19.6682V12.8608C19.0529 12.6846 18.5112 12.3099 18.1255 11.7935C17.7397 11.2772 17.531 10.6474 17.531 9.99999C17.531 9.35254 17.7397 8.72278 18.1255 8.20643C18.5112 7.69007 19.0529 7.31534 19.6682 7.13918V4.86485H2.05142V7.13918C2.66672 7.31534 3.20841 7.69007 3.59417 8.20643C3.97993 8.72278 4.18867 9.35254 4.18867 9.99999C4.18867 10.6474 3.97993 11.2772 3.59417 11.7935C3.20841 12.3099 2.66672 12.6846 2.05142 12.8608V15.1351Z" fill="black" fill-opacity="0.8"/>
<path d="M14.8646 5.84755C14.7938 5.84755 14.7259 5.81908 14.6758 5.76839C14.6258 5.71771 14.5977 5.64896 14.5977 5.57728V4.59458C14.5977 4.5229 14.6258 4.45416 14.6758 4.40347C14.7259 4.35278 14.7938 4.32431 14.8646 4.32431C14.9354 4.32431 15.0033 4.35278 15.0533 4.40347C15.1034 4.45416 15.1315 4.5229 15.1315 4.59458V5.57728C15.1315 5.64896 15.1034 5.71771 15.0533 5.76839C15.0033 5.81908 14.9354 5.84755 14.8646 5.84755Z" fill="black" fill-opacity="0.8"/>
<path d="M14.8646 8.30458C14.7938 8.30458 14.7259 8.27611 14.6758 8.22542C14.6258 8.17474 14.5977 8.10599 14.5977 8.03431V7.05161C14.5977 6.97993 14.6258 6.91119 14.6758 6.8605C14.7259 6.80982 14.7938 6.78134 14.8646 6.78134C14.9354 6.78134 15.0033 6.80982 15.0533 6.8605C15.1034 6.91119 15.1315 6.97993 15.1315 7.05161V8.03431C15.1315 8.10599 15.1034 8.17474 15.0533 8.22542C15.0033 8.27611 14.9354 8.30458 14.8646 8.30458Z" fill="black" fill-opacity="0.8"/>
<path d="M14.8646 10.7616C14.7938 10.7616 14.7259 10.7331 14.6758 10.6825C14.6258 10.6318 14.5977 10.563 14.5977 10.4913V9.50864C14.5977 9.43696 14.6258 9.36822 14.6758 9.31753C14.7259 9.26685 14.7938 9.23837 14.8646 9.23837C14.9354 9.23837 15.0033 9.26685 15.0533 9.31753C15.1034 9.36822 15.1315 9.43696 15.1315 9.50864V10.4916C15.1314 10.5632 15.1033 10.6319 15.0532 10.6825C15.0032 10.7332 14.9353 10.7616 14.8646 10.7616Z" fill="black" fill-opacity="0.8"/>
<path d="M14.8646 13.2186C14.7938 13.2186 14.7259 13.1902 14.6758 13.1395C14.6258 13.0888 14.5977 13.0201 14.5977 12.9484V11.9657C14.5977 11.894 14.6258 11.8253 14.6758 11.7746C14.7259 11.7239 14.7938 11.6954 14.8646 11.6954C14.9354 11.6954 15.0033 11.7239 15.0533 11.7746C15.1034 11.8253 15.1315 11.894 15.1315 11.9657V12.9484C15.1315 13.0201 15.1034 13.0888 15.0533 13.1395C15.0033 13.1902 14.9354 13.2186 14.8646 13.2186Z" fill="black" fill-opacity="0.8"/>
<path d="M14.8646 15.6757C14.7938 15.6757 14.7259 15.6472 14.6758 15.5965C14.6258 15.5458 14.5977 15.4771 14.5977 15.4054V14.4227C14.5977 14.351 14.6258 14.2823 14.6758 14.2316C14.7259 14.1809 14.7938 14.1524 14.8646 14.1524C14.9354 14.1524 15.0033 14.1809 15.0533 14.2316C15.1034 14.2823 15.1315 14.351 15.1315 14.4227V15.4054C15.1315 15.4771 15.1034 15.5458 15.0533 15.5965C15.0033 15.6472 14.9354 15.6757 14.8646 15.6757Z" fill="black" fill-opacity="0.8"/>
<path d="M6.57155 12.8492C6.51877 12.8492 6.46717 12.8333 6.42329 12.8036C6.3794 12.7739 6.3452 12.7317 6.325 12.6823C6.3048 12.633 6.29952 12.5786 6.30981 12.5262C6.32011 12.4738 6.34552 12.4256 6.38284 12.3878L11.3294 7.37649C11.354 7.35067 11.3835 7.33008 11.4161 7.31592C11.4486 7.30175 11.4837 7.2943 11.5191 7.29399C11.5545 7.29367 11.5897 7.30051 11.6225 7.3141C11.6553 7.32769 11.6851 7.34776 11.7102 7.37314C11.7352 7.39851 11.755 7.42869 11.7685 7.4619C11.7819 7.49512 11.7886 7.53071 11.7883 7.56659C11.788 7.60248 11.7807 7.63795 11.7667 7.67092C11.7527 7.70389 11.7323 7.73372 11.7068 7.75865L6.76027 12.7703C6.71018 12.8209 6.6423 12.8492 6.57155 12.8492Z" fill="black" fill-opacity="0.8"/>
<path d="M10.6958 12.9781C10.452 12.9781 10.2136 12.9049 10.0108 12.7677C9.80808 12.6306 9.65006 12.4356 9.55674 12.2075C9.46343 11.9794 9.43901 11.7284 9.48658 11.4862C9.53415 11.244 9.65158 11.0216 9.824 10.847C9.99643 10.6724 10.2161 10.5535 10.4553 10.5053C10.6944 10.4572 10.9423 10.4819 11.1676 10.5764C11.3929 10.6709 11.5855 10.8309 11.7209 11.0362C11.8564 11.2415 11.9287 11.4828 11.9287 11.7297C11.9283 12.0607 11.7983 12.378 11.5671 12.612C11.336 12.846 11.0227 12.9777 10.6958 12.9781ZM10.6958 11.0216C10.5575 11.0216 10.4224 11.0631 10.3074 11.1409C10.1925 11.2187 10.1029 11.3292 10.05 11.4585C9.99705 11.5879 9.98319 11.7302 10.0101 11.8675C10.0371 12.0048 10.1037 12.1309 10.2014 12.2299C10.2991 12.3289 10.4237 12.3963 10.5593 12.4237C10.6948 12.451 10.8354 12.437 10.9631 12.3835C11.0909 12.33 11.2001 12.2393 11.2769 12.1229C11.3538 12.0065 11.3948 11.8697 11.3949 11.7297C11.3947 11.542 11.321 11.362 11.19 11.2293C11.0589 11.0965 10.8812 11.0218 10.6958 11.0216Z" fill="black" fill-opacity="0.8"/>
<path d="M7.28955 9.50192C7.04571 9.50192 6.80736 9.42871 6.60461 9.29154C6.40187 9.15438 6.24384 8.95943 6.15052 8.73133C6.05719 8.50324 6.03276 8.25224 6.08031 8.01009C6.12786 7.76793 6.24526 7.5455 6.41766 7.3709C6.59006 7.1963 6.80971 7.07738 7.04886 7.02918C7.288 6.98098 7.53589 7.00566 7.76118 7.10011C7.98647 7.19455 8.17904 7.35452 8.31455 7.55978C8.45005 7.76504 8.52241 8.00637 8.52246 8.25327C8.52211 8.58427 8.39211 8.90162 8.16097 9.1357C7.92984 9.36979 7.61645 9.50149 7.28955 9.50192ZM7.28955 7.54543C7.15129 7.54543 7.01613 7.58694 6.90117 7.66472C6.78621 7.7425 6.69661 7.85305 6.6437 7.98239C6.59079 8.11173 6.57694 8.25405 6.60392 8.39136C6.63089 8.52867 6.69747 8.65479 6.79524 8.75378C6.893 8.85278 7.01756 8.92019 7.15317 8.9475C7.28877 8.97482 7.42933 8.9608 7.55707 8.90722C7.68481 8.85365 7.79399 8.76292 7.8708 8.64652C7.94762 8.53012 7.98862 8.39326 7.98862 8.25327C7.98841 8.0656 7.91469 7.88569 7.78363 7.75299C7.65258 7.62029 7.47489 7.54564 7.28955 7.54543Z" fill="black" fill-opacity="0.8"/>
</g>
<defs>
<clipPath id="clip0">
<rect width="19.7522" height="20" fill="white" transform="translate(0.984375)"/>
</clipPath>
</defs>
</svg>
