<svg width="17" height="17" viewBox="0 0 17 17" fill="none" xmlns="http://www.w3.org/2000/svg">
<path d="M0 16.0029C0.213 15.3429 0.404 14.7479 0.617 14.1729C0.851 13.4499 1.107 12.7479 1.34 12.0249C1.37657 11.9132 1.36943 11.7917 1.32 11.6849C0.105 9.46994 -0.065 7.19394 0.871 4.87394C1.595 3.04394 2.893 1.70394 4.637 0.831944C5.99304 0.156632 7.51638 -0.109189 9.021 0.066944C10.681 0.236944 12.171 0.896944 13.404 2.02494C14.6361 3.1125 15.4865 4.56685 15.83 6.17394C16.192 7.85394 16.021 9.49294 15.298 11.0459C14.468 12.8539 13.128 14.1739 11.298 14.9609C9.064 15.9179 6.83 15.8539 4.617 14.7909C4.53225 14.7371 4.43552 14.705 4.33539 14.6975C4.23526 14.69 4.13483 14.7073 4.043 14.7479C2.809 15.1309 1.574 15.5349 0.319 15.9179C0.218305 15.9643 0.110409 15.993 0 16.0029H0ZM1.957 14.1099C2.766 13.8539 3.511 13.6199 4.255 13.3649C4.32727 13.3347 4.40591 13.3228 4.4839 13.3303C4.56189 13.3378 4.63682 13.3645 4.702 13.4079C5.979 14.1739 7.383 14.4929 8.852 14.3229C10.745 14.1099 12.319 13.2369 13.447 11.6839C14.915 9.68394 15.17 7.47094 14.213 5.19394C12.936 2.21694 9.66 0.642944 6.489 1.47194C2.085 2.59994 0.128 7.72694 2.681 11.4709C2.787 11.6209 2.787 11.7269 2.723 11.8969C2.468 12.6199 2.234 13.3219 1.957 14.1099Z" fill="white"/>
<path d="M4.32001 6.00001C4.29801 5.44701 4.55301 4.936 4.97901 4.49C5.21301 4.255 5.74501 4.12801 6.04301 4.29801C6.14901 4.36201 6.23401 4.49001 6.29801 4.59601C6.51101 5.06401 6.70201 5.53201 6.87201 6.00001C6.91501 6.15001 6.87201 6.362 6.80801 6.49001C6.69736 6.67772 6.56142 6.84933 6.40401 7.00001C6.29801 7.12801 6.27701 7.25501 6.36201 7.40401C6.96105 8.43258 7.89094 9.22782 9.00001 9.66001C9.17001 9.72401 9.32001 9.70201 9.42501 9.55301C9.59501 9.34101 9.78701 9.12801 9.95701 8.893C10.085 8.723 10.234 8.66001 10.447 8.76601C10.937 9.00001 11.447 9.23401 11.937 9.46801C12.085 9.53201 12.149 9.638 12.149 9.808C12.149 10.575 11.702 11.107 10.894 11.362C10.404 11.511 9.93601 11.447 9.44701 11.298C7.27701 10.702 5.80801 9.27701 4.70201 7.38301C4.44701 7.00001 4.32001 6.49001 4.32001 6.00001Z" fill="white"/>
</svg>
