<svg width="14" height="9" viewBox="0 0 14 9" fill="none" xmlns="http://www.w3.org/2000/svg">
<path d="M0.538506 4.57735V4.42754C0.592668 3.70919 0.631356 2.98865 0.692483 2.26957C0.807773 1.05502 1.39196 0.447752 2.59902 0.380521C4.20533 0.290636 5.82016 0.230713 7.43499 0.230713C8.85638 0.230713 10.2716 0.31329 11.6937 0.387829C12.6772 0.440445 13.2621 0.935177 13.4386 1.82745C13.485 2.07445 13.5159 2.32145 13.5391 2.56918C13.5925 3.23565 13.6382 3.91015 13.6924 4.57735V4.87696C13.6382 5.5215 13.5918 6.16604 13.5384 6.81059C13.4386 8.00978 12.9619 8.62436 11.963 8.81948C11.6617 8.87811 11.3553 8.91064 11.0477 8.91667C9.57907 8.95467 8.10351 9.00656 6.63493 8.99925C5.25145 8.99194 3.87494 8.92398 2.49146 8.84213C1.5382 8.78221 0.907587 8.21952 0.769085 7.32797C0.691709 6.82593 0.662306 6.31658 0.615881 5.80651C0.577193 5.39435 0.561718 4.98219 0.538506 4.57735ZM5.87355 2.65176V6.57089C6.98079 5.9037 8.04161 5.2672 9.14112 4.60731C8.02691 3.94084 6.96532 3.31092 5.87355 2.65176Z" fill="white"/>
</svg>
